<svg width="32" height="31" viewBox="0 0 30 30.5" fill="none" xmlns="http://www.w3.org/2000/svg">
  <path d="M18.5784 0.5H10.8463C4.85607 0.5 0 5.37412 0 11.3866V19.1474C0 25.16 4.85607 30.0341 10.8463 30.0341H18.5784C24.5686 30.0341 29.4247 25.16 29.4247 19.1474V11.3866C29.4247 5.37412 24.5686 0.5 18.5784 0.5Z" fill="#008081"/>
  <path d="M8.93481 11.9365V21.6374C8.93481 21.9948 9.07624 22.3375 9.32798 22.5902C9.57973 22.8428 9.92116 22.9848 10.2772 22.9848C10.6332 22.9848 10.9746 22.8428 11.2264 22.5902C11.4781 22.3375 11.6195 21.9948 11.6195 21.6374V11.9365C11.6195 11.5791 11.4781 11.2364 11.2264 10.9837C10.9746 10.7311 10.6332 10.5891 10.2772 10.5891C9.92116 10.5891 9.57973 10.7311 9.32798 10.9837C9.07624 11.2364 8.93481 11.5791 8.93481 11.9365Z" fill="white"/>
  <path d="M10.739 9.47878C11.6879 9.47878 12.4572 8.70664 12.4572 7.75416C12.4572 6.80168 11.6879 6.02954 10.739 6.02954C9.79003 6.02954 9.02075 6.80168 9.02075 7.75416C9.02075 8.70664 9.79003 9.47878 10.739 9.47878Z" fill="#DC3E4D"/>
  <path d="M18.1918 10.9769L11.19 18.9749L9.4396 20.9797C9.19476 21.2365 9.05811 21.5782 9.05811 21.9337C9.05811 22.2891 9.19476 22.6308 9.4396 22.8876C9.69234 23.1351 10.0315 23.2737 10.3846 23.2737C10.7378 23.2737 11.0769 23.1351 11.3297 22.8876L18.2563 14.9328L20.0497 12.8848C20.2945 12.628 20.4312 12.2863 20.4312 11.9309C20.4312 11.5754 20.2945 11.2337 20.0497 10.9769C19.7969 10.7294 19.4578 10.5908 19.1047 10.5908C18.7515 10.5908 18.4124 10.7294 18.1596 10.9769H18.1918Z" fill="white"/>
  <path d="M10.3846 23.2758H19.0617C19.4168 23.273 19.7566 23.1301 20.0078 22.878C20.2589 22.626 20.4012 22.2849 20.404 21.9284C20.3985 21.5728 20.2553 21.2333 20.0047 20.9818C19.7542 20.7304 19.416 20.5866 19.0617 20.5811H10.3846C10.0286 20.5811 9.68715 20.723 9.43541 20.9757C9.18366 21.2284 9.04224 21.5711 9.04224 21.9284C9.04224 22.2858 9.18366 22.6285 9.43541 22.8811C9.68715 23.1338 10.0286 23.2758 10.3846 23.2758Z" fill="white"/>
  <path d="M19.1369 10.5891H10.6209C10.2658 10.5919 9.92597 10.7348 9.67484 10.9869C9.4237 11.2389 9.28137 11.58 9.27856 11.9365C9.28676 12.2912 9.43081 12.6292 9.6808 12.8801C9.93079 13.131 10.2675 13.2756 10.6209 13.2838H19.1369C19.4929 13.2838 19.8344 13.1419 20.0861 12.8892C20.3379 12.6365 20.4793 12.2938 20.4793 11.9365C20.4793 11.5791 20.3379 11.2364 20.0861 10.9837C19.8344 10.7311 19.4929 10.5891 19.1369 10.5891Z" fill="white"/>
</svg>
